<?xml version="1.0" encoding="UTF-8" standalone="no"?>
<svg
   class="svg-icon"
   style="width: 1em; height: 1em;vertical-align: middle;fill: currentColor;overflow: hidden;"
   viewBox="0 0 1024 1024"
   version="1.1"
   id="svg4"
   sodipodi:docname="white-password-show.svg"
   inkscape:version="1.1.2 (0a00cf5339, 2022-02-04)"
   xmlns:inkscape="http://www.inkscape.org/namespaces/inkscape"
   xmlns:sodipodi="http://sodipodi.sourceforge.net/DTD/sodipodi-0.dtd"
   xmlns="http://www.w3.org/2000/svg"
   xmlns:svg="http://www.w3.org/2000/svg">
  <defs
     id="defs8" />
  <sodipodi:namedview
     id="namedview6"
     pagecolor="#ffffff"
     bordercolor="#666666"
     borderopacity="1.0"
     inkscape:pageshadow="2"
     inkscape:pageopacity="0.0"
     inkscape:pagecheckerboard="0"
     showgrid="false"
     inkscape:zoom="0.70996094"
     inkscape:cx="512"
     inkscape:cy="512"
     inkscape:window-width="2560"
     inkscape:window-height="1364"
     inkscape:window-x="0"
     inkscape:window-y="0"
     inkscape:window-maximized="1"
     inkscape:current-layer="svg4" />
  <path
     d="M512 398.336c-75.776 0-137.216 61.44-137.216 137.216s61.44 137.216 137.216 137.216 137.216-61.44 137.216-137.216-61.44-137.216-137.216-137.216z m0 205.824c-37.888 0-68.608-30.72-68.608-68.608s30.72-68.608 68.608-68.608 68.608 30.72 68.608 68.608c0.512 37.376-30.72 68.608-68.608 68.608z m0-369.664c-278.016 0-479.744 179.712-479.744 300.544 0 118.784 215.04 300.544 479.744 300.544 262.144 0 474.624-181.76 474.624-300.544S774.144 234.496 512 234.496z m0 532.992c-237.568 0-411.136-162.816-411.136-232.448 0-79.36 173.568-232.448 411.136-232.448 235.008 0 406.528 162.816 406.528 232.448s-171.52 232.448-406.528 232.448z"
     id="path2"
     style="fill:#ffffff;fill-opacity:1" />
</svg>
